<svg width="149" height="235" viewBox="0 0 149 235" fill="none" xmlns="http://www.w3.org/2000/svg">
<g id="Group 26926" opacity="0.1">
<path id="Vector" d="M-4.64554 212.415C-11.4597 213.401 -22.7659 189.147 -17.956 192.715C-8.84924 198.379 6.50238 198.028 6.42369 212.618C5.32409 218.671 21.9649 204.733 19.7525 201.135C18.1368 197.208 12.5772 195.195 12.1851 190.392C11.6802 183.747 7.23354 177.722 7.58332 171.266C12.3425 161.212 31.9504 190.842 23.068 199.405C18.5753 208.724 29.8059 196.95 32.4342 195.35C36.082 193.286 36.206 189.823 36.5916 186.498C34.6895 181.226 24.5986 179.405 22.5323 170.067C21.9091 165.211 16.5756 161.061 16.6981 156.685C18.2008 154.849 25.7354 162.327 29.0367 162.42C39.4261 165.057 44.9924 174.645 39.4767 184.806C38.8755 186.313 37.9372 188.476 38.7005 189.817C45.8167 184.796 52.4304 178.268 59.7649 173.524C64.1988 169.725 62.0341 166.769 59.1712 162.569C56.3083 158.369 52.6012 153.088 55.5281 144.216C55.074 143.656 64.5354 120.791 65.6091 131.609C66.7655 144.49 68.7613 158.221 63.4595 170.39C92.8758 162.191 80.196 141.012 103.565 131.143C121.411 124.907 106.686 135.31 105.134 141.963C100.978 152.281 89.4755 155.616 81.9323 161.951C91.3265 161.481 96.8439 151.682 106.482 155.817C108.954 157.479 125.906 161.717 119.082 163.346C102.09 171.123 92.0559 156.988 75.2274 167.118C66.8864 170.998 87.1607 165.458 89.2141 168.037C95.7397 170.064 103.237 177.416 105.836 183.875C88.824 186.203 80.5594 159.203 60.2527 175.997C57.11 178.58 66.2438 175.517 67.154 175.895C72.2065 173.659 94.7716 187.518 90.5285 191.928C62.979 193.933 68.8211 161.399 39.0636 193.489C43.9094 194.613 49.9379 187.58 59.6979 191.753C67.6916 193.893 77.3431 193.637 84.1129 198.308C75.5616 203.416 59.0291 209.223 49.7998 200.401C47.1548 198.685 44.8556 195.059 41.2453 195.593C33.5454 196.551 28.4327 202.841 22.348 207.421C19.6448 209.018 22.8377 209.153 27.3389 209.733C37.2735 209.545 42.2798 218.179 48.689 224.318C55.7248 232.974 29.9308 232.022 23.609 212.551C19.0796 204.465 -7.53275 234.088 -25.2125 231.641C-25.5353 230.46 -25.7393 229.249 -25.8216 228.027C-17.7039 227.256 22.3333 213.963 -4.64554 212.415ZM28.6749 211.803C32.7969 215.556 37.1098 219.093 41.5966 222.401C37.3669 222.724 30.5581 216.156 27.5991 213.429C26.9831 222.03 49.163 232.534 48.4601 225.484C42.2195 220.273 37.8995 212.309 29.3401 210.887C28.0068 210.34 27.3512 211.164 28.6749 211.803ZM96.5294 144.791C98.9464 143.81 90.9849 152.717 90.4526 153.94C101.591 150.549 102.785 138.741 110.326 131.188C110.775 130.661 110.314 130.309 109.657 130.524C92.1295 130.161 73.3957 176.14 96.5294 144.791ZM105.1 164.313C105.789 164.85 110.064 163.952 113.577 163.425C125.993 162.296 111.119 159.084 106.972 156.997C102.79 155.698 98.0586 155.675 94.1819 158.905C92.8941 160.845 106.1 159.314 107.926 160.604C104.027 161.639 98.0917 159.795 94.0305 161.598C95.6305 163.37 102.987 164.132 105.1 164.313ZM61.695 163.144C62.6174 162.441 60.952 156.1 61.1409 154.389C61.1603 150.589 59.3871 144.596 62.2356 141.123C61.6033 147.944 62.3113 154.822 64.3198 161.371C65.1359 151.881 66.3246 140.947 63.789 131.71C57.1196 141.114 53.3095 154.545 61.695 163.144ZM97.9957 176.892C94.8605 175.652 93.8721 173.994 88.3627 172.188C73.7623 166.873 101.359 184.997 104.839 183.166C100.859 176.925 93.6032 169.591 85.6138 169.336C81.662 169.193 85.0601 170.077 89.2139 171.653C93.3678 173.228 98.0044 175.639 97.9957 176.892ZM66.3398 177.108C65.9556 176.874 81.8787 182.219 78.8895 183.327C75.5342 181.448 71.5641 179.587 67.6259 179.829C70.137 183.085 73.3102 185.772 76.936 187.711C80.5618 189.651 84.5578 190.799 88.6601 191.081C93.9743 190.943 85.9476 186.09 84.5158 184.39C79.7348 179.993 73.1751 175.196 66.3506 177.073L66.3398 177.108ZM39.366 182.222C44.1293 164.558 28.0844 165.854 18.242 157.963C22.5941 166.927 26.4693 177.855 36.2465 182.585C37.098 177.883 33.5745 173.42 31.4471 169.486C35.658 170.204 38.2561 186.102 39.3768 182.187L39.366 182.222ZM49.1052 193.753C56.0045 194.944 63.2879 196.369 69.989 197.708C62.7386 198.444 55.087 194.773 47.8097 195.596C55.4004 206.631 70.8813 203.352 80.9474 198.391C71.0726 193.761 60.1917 191.69 49.3066 192.369C47.5016 192.36 46.6987 193.843 49.1854 193.74L49.1052 193.753ZM18.7886 191.739C17.2748 187.178 13.6775 183.32 12.7425 178.672C16.6177 184.576 20.9363 190.522 22.3047 197.513C30.5299 189.411 4.94456 157.582 9.20107 176.411C10.2129 180.322 13.1764 183.831 13.2216 187.974C12.5493 194.121 23.3685 204.503 18.8688 191.726L18.7886 191.739ZM2.06373 212.197C4.675 209.487 -8.13035 203.417 -9.73982 201.185C-4.36959 203.465 0.536768 206.711 4.73574 210.762C5.06547 200.265 -12.3822 198.48 -16.745 194.575C-17.8389 193.931 -17.2857 195.397 -14.4155 201.902C-11.5174 208.93 -5.13071 211.465 2.1439 212.183L2.06373 212.197ZM63.6157 170.439L63.4595 170.39L63.6157 170.439ZM18.023 157.933L18.1444 157.971L18.023 157.933ZM70.1386 197.717C70.9934 197.354 70.6753 198.378 70.1386 197.717V197.717ZM29.0106 166.731C28.0543 166.625 28.9445 165.474 29.0861 166.489L29.0106 166.731ZM12.5869 178.376L12.7084 178.414C12.7174 178.569 12.6977 178.449 12.6564 178.398L12.5869 178.376ZM-11.1042 200.247C-11.4302 199.214 -12.1133 200.372 -11.1042 200.247V200.247Z" fill="white"/>
<path id="Vector_2" d="M-63.2774 166.592C-73.8222 163.108 -75.5982 153.631 -78.5219 145.644C-79.3317 143.166 -73.8288 147.444 -72.8987 147.391C-62.6748 150.928 -46.2189 153.394 -49.9455 168.088C-50.5977 170.188 -50.2136 170.421 -47.7954 169.498C-40.787 166.784 -24.3491 161.404 -34.0506 152.264C-34.8493 151.433 -35.4461 150.43 -35.7947 149.332C-36.1433 148.233 -36.2343 147.069 -36.0607 145.93C-34.542 139.019 -37.6676 132.111 -35.5325 125.543C-28.0742 115.928 -13.0908 148.193 -26.2788 156.466C-36.4784 166.942 -10.2804 151.521 -9.30065 148.856C-5.39422 143.447 -8.14717 140.119 -13.4748 136.256C-20.1458 131.635 -19.0907 121.192 -23.3835 114.549C-23.7807 113.684 -24.8481 112.648 -23.837 111.782C-22.2776 110.192 -15.2236 118.054 -11.8637 118.203C-0.211453 120.757 4.08966 132.825 -3.475 141.741C-4.41321 143.353 -6.06026 145.714 -5.50697 147.18C47.5544 109.293 12.2108 129.715 11.0461 92.7211C11.0778 89.8004 9.20561 76.7736 14.2955 83.6066C22.8823 93.8854 29.9745 107.506 24.9242 121.561C56.5042 99.5326 34.2483 83.9427 39.4892 55.4277C40.1206 50.0862 42.0872 53.1899 44.5987 57.3572C57.3536 72.413 50.7537 86.8617 43.3151 102.173C53.6047 93.5512 52.2658 79.9098 61.6704 70.4616C68.0296 64.6917 70.6143 54.838 74.922 48.2596C76.8289 61.2972 71.9379 77.78 62.505 87.8094C52.2702 95.4583 46.2915 101.841 37.6067 112.464C34.6906 115.726 33.5022 117.469 39.8737 112.579C51.4022 101.316 60.9859 98.8885 74.5293 96.701C77.0551 95.9822 79.3463 95.59 80.0054 97.4503C75.1247 110.53 60.2737 115.09 49.2327 114.306C38.2282 113.894 29.6871 121.175 21.4637 129.087C19.6187 131.045 21.3371 130.475 23.6943 129.38C26.0514 128.286 28.9539 126.599 29.5111 126.582C32.6045 125.417 35.8229 124.616 39.1015 124.194C42.1832 123.952 66.4755 124.837 59.5828 131.773C38.7781 151.458 31.445 123.358 13.6541 136.157C7.47102 141.544 0.27419 146.274 -6.00939 151.249C-1.58905 152.089 5.66339 147.548 11.1601 147.067C23.2832 147.921 35.5012 146.692 47.8492 145.351C58.2397 145.533 12.6726 173.322 4.77633 158.614C-4.5557 146.201 -19.2599 160.397 -29.6784 164.716C-33.2882 166.106 -29.6967 166.613 -24.5648 167.674C-13.3754 168.409 -10.1258 177.43 -4.26278 184.96C1.50533 194.021 -27.612 192.741 -29.7783 170.184C-31.1489 167.551 -34.3957 167.037 -38.0266 168.802C-54.2912 175.891 -71.8039 183.506 -90.4114 184.292C-90.7461 183.113 -90.9504 181.901 -91.0205 180.678C-82.91 179.562 -31.2647 171.416 -63.2774 166.592ZM-23.7389 170.1C-20.1309 174.481 -16.2438 178.625 -12.102 182.506C-17.0456 182.493 -22.8697 174.899 -25.5173 171.66C-28.5252 181.344 -6.45044 193.719 -5.01058 186.326C-10.8075 180.054 -13.4395 171.434 -22.6877 169.228C-23.9725 168.524 -25.0889 169.3 -23.7389 170.1ZM46.2096 74.7177C47.4892 71.823 47.8392 86.0136 47.6 87.5187C51.1244 80.5829 51.9828 71.7534 47.9931 66.7083C45.7473 65.1164 42.5497 53.6 40.6688 55.4896C37.8223 68.8206 42.5066 80.5133 44.2106 93.4689C46.7375 95.8712 46.9698 74.2307 46.2096 74.7177ZM67.319 78.7431C68.221 81.2307 77.544 48.5792 73.351 53.1951C69.1125 66.4743 57.0587 74.2814 53.9901 88.2665C55.2678 91.1372 65.1644 73.4878 66.6886 71.5825C64.6078 78.8335 58.5186 84.5921 55.378 90.905C57.988 91.2018 65.4042 82.3349 67.319 78.7431ZM22.0661 114.526C22.9791 113.364 19.982 107.39 19.6657 105.712C18.7431 101.943 15.1071 97.0461 16.0333 92.8999C18.6079 99.0088 21.288 106.616 24.4961 111.665C23.9775 102.123 19.7601 90.7653 12.8715 84.5154C12.8956 94.6086 12.6476 108.518 22.0661 114.526ZM67.0803 102.304C62.9447 104.958 61.0403 104.595 53.8695 108.077C42.0175 112.845 52.8291 111.426 57.7069 111.59C65.3929 111.351 73.7022 104.817 78.248 98.6362C78.14 97.0232 76.0012 98.3951 75.046 98.3458C66.0548 101.072 57.7207 100.824 49.8082 107.367C45.3373 110.489 49.3231 108.929 54.667 106.612C60.0109 104.294 66.5455 100.901 67.0803 102.304ZM28.531 128.39C28.1305 128.76 47.5589 126.802 43.9666 129.606C39.7036 129.424 34.7032 129.165 30.0794 131.002C37.6033 137.963 47.4546 137.921 57.0253 132.349C64.5287 126.878 53.1162 128.147 51.3175 126.77C44.1706 124.722 35.2969 123.945 28.5071 128.344L28.531 128.39ZM-3.12308 139.015C5.39352 123.297 -13.2942 121.032 -22.4154 113.27C-18.5756 122.474 -16.5961 134.297 -6.66093 139.438C-4.81819 134.302 -8.04603 129.684 -9.86695 125.56C-4.94817 126.878 -5.06497 143.245 -3.12308 139.015ZM5.77505 151.293C14.0927 152.243 22.4755 152.491 30.8347 152.036C21.7087 155.196 12.8689 152.165 3.75584 153.445C13.3728 168.249 33.5836 157.4 45.3822 148.086C46.1222 146.622 -6.03351 149.243 5.76966 151.311L5.77505 151.293ZM-28.7834 148.172C-29.1498 143.224 -32.039 138.864 -31.7614 133.926C-29.1438 140.448 -25.9535 147.148 -26.5304 154.58C-14.5539 147.206 -34.8015 111.364 -35.0998 131.196C-35.1175 135.357 -32.8046 139.368 -34.084 143.671C-36.8248 150.412 -27.4489 161.888 -28.79 148.132L-28.7834 148.172ZM-54.9644 167.214C-50.5823 165.359 -65.1886 156.693 -66.8029 154.784C-60.8239 157.243 -55.5364 161.126 -51.4007 166.095C-48.2486 153.924 -70.7139 151.323 -74.9463 147.611C-76.5022 146.862 -75.8849 148.366 -73.4751 155.128C-70.5789 162.897 -62.7739 165.645 -54.9536 167.179L-54.9644 167.214ZM-22.5584 113.302L-22.4369 113.34L-22.5584 113.302ZM31.0364 152.06C32.2048 151.3 31.5904 152.727 31.0687 151.956L31.0364 152.06ZM-12.1029 122.772C-13.0713 122.642 -12.0608 121.472 -11.9407 122.556L-12.1029 122.772ZM-31.8595 133.629L-31.738 133.667C-31.844 133.824 -31.905 133.653 -31.8942 133.618L-31.8595 133.629ZM-68.3181 153.78C-68.501 152.715 -69.7545 153.81 -68.3181 153.78V153.78Z" fill="white"/>
<path id="Vector_3" d="M-101.418 171.511C-107.889 178.559 -117.386 178.502 -126.1 179.601C-128.705 179.839 -123.034 174.692 -122.655 173.84C-117.719 168.179 -113.456 158.314 -105.132 158.349C-99.2485 156.561 -92.1524 166.187 -92.1345 161.473C-86.8263 136.785 -91.4708 147.94 -103.7 139.403C-107.489 133.221 -114.184 130.267 -116.177 122.531C-116.775 114.962 -107.91 117.296 -102.898 120.033C-81.6363 129.51 -94.7715 161.263 -82.9572 132.354C-78.5064 125.192 -82.8459 119.068 -91.0907 118.41C-99.3355 117.752 -102.923 107.123 -108.985 102.5C-115.276 95.37 -99.3953 101.463 -96.0255 100.417C-84.4005 99.1367 -77.4737 108.082 -79.8606 119.443C-80.0908 121.103 -80.1657 123.611 -79.0018 124.581C-73.9194 117.102 -69.0183 108.919 -62.5889 102.372C-55.152 91.7224 -78.1813 90.2024 -71.4601 68.8076C-71.0219 65.8038 -67.351 50.9211 -64.9661 59.54C-60.7111 71.8797 -56.3816 85.3271 -59.5039 98.3821C-30.502 83.1843 -48.7893 62.4141 -25.763 45.9311C-18.5073 40.1542 -26.0606 56.8758 -24.472 58.9297C-24.9068 70.7452 -36.1116 77.3507 -42.3851 85.602C-33.2011 82.7456 -28.8037 71.0382 -18.3683 71.4439C-12.0872 71.9295 -5.1876 68.9535 0.422622 69.5161C-3.65749 75.423 -11.2575 79.5516 -18.2486 82.2708C-31.1901 85.2161 -36.7178 82.2433 -48.2633 92.3967C-56.1651 99.4572 -34.2653 82.986 -21.6704 93.3489C-19.6724 95.1873 -12.8606 96.5989 -12.3693 99.7962C-28.5701 109.988 -45.3124 83.0182 -61.621 104.708C-64.2671 107.959 -55.6865 102.879 -54.7637 103.032C-50.5351 99.5883 -24.4334 108.495 -28.4105 113.824C-53.8403 122.177 -58.8054 87.3717 -77.3363 127.858C-71.2299 125.72 -67.3141 118.259 -58.4806 120.146C-50.1651 120.331 -41.114 118.271 -33.5695 121.49C-41.3796 128.255 -53.5817 135.559 -64.9659 130.672C-67.9822 129.907 -71.493 127.18 -74.5242 129.036C-81.391 132.764 -83.4769 140.889 -85.6851 147.815C-87.6844 152.046 -76.3764 144.312 -73.4392 145.148C-33.2902 151.776 -60.5329 163.086 -81.6441 151.163C-94.8337 150.435 -87.8588 187.654 -89.5006 196.126C-90.7144 196.308 -91.9417 196.386 -93.1688 196.356C-93.533 189.564 -93.8155 181.712 -93.5435 174.832C-92.1564 162.646 -92.5518 161.591 -101.418 171.511ZM-78.2637 148.122C-72.9552 149.104 -67.1207 150.232 -62.0726 151.133C-65.6693 152.604 -74.5888 150.443 -78.2671 149.909C-76.2638 154.794 -50.7148 156.412 -54.9732 151.435C-62.6402 149.53 -70.4016 144.436 -78.3652 147.101C-79.4827 147.267 -79.6325 148.363 -78.2637 148.122ZM-31.9186 64.6473C-29.7511 62.9989 -35.2945 74.046 -35.5719 75.368C-25.3792 69.019 -27.375 57.2478 -24.1641 47.0938C-23.9647 46.4516 -24.5602 46.2857 -25.0493 46.8189C-35.8473 49.1739 -45.8732 93.4625 -36.0491 73.412C-34.4707 70.5897 -33.0905 67.6611 -31.9186 64.6473ZM-17.4899 80.3181C-17.9953 81.4551 1.12382 70.6283 -3.00699 70.449C-9.9764 72.547 -17.9774 71.1657 -24.7173 74.3626C-25.8856 74.5706 -33.4668 80.1702 -29.6148 79.654C-25.7627 79.1378 -19.1204 75.9486 -15.4234 75.4413C-19.8069 78.3425 -26.2133 78.7504 -30.191 81.8156C-28.1714 83.0329 -19.9015 81.2817 -17.4899 80.3181ZM-62.8408 91.5417C-62.0087 90.6394 -64.7695 84.7011 -64.9145 82.9624C-65.6205 79.1085 -68.5758 73.4903 -66.4556 69.5436C-65.7118 76.4037 -63.7035 83.0665 -60.5325 89.1949C-61.3784 79.6648 -62.3778 68.5456 -66.9209 60.0746C-70.9636 70.0274 -72.7936 84.9871 -62.8061 91.5525L-62.8408 91.5417ZM-22.8357 95.9365C-26.4135 95.8148 -28.0422 94.3194 -34.017 94.1954C-37.6253 93.9881 -40.628 94.1592 -38.1295 95.1826C-30.7586 98.8991 -21.6808 102.328 -13.8278 99.5906C-19.6424 94.9683 -29.3113 90.1954 -37.3251 92.1023C-43.9886 93.7054 -23.2982 93.0145 -22.8009 95.9473L-22.8357 95.9365ZM-55.4636 104.49C-55.7934 104.387 -38.9843 106.145 -41.8282 107.887C-45.5861 106.435 -49.675 106.061 -53.6339 106.809C-50.4829 109.488 -46.7944 111.46 -42.8169 112.594C-38.8393 113.728 -34.6651 113.996 -30.5751 113.38C-25.1811 111.821 -34.2286 109.03 -35.9418 107.622C-41.5544 104.433 -49.0918 101.007 -55.4636 104.49ZM-80.8267 116.917C-80.839 97.3503 -96 103.888 -108.414 100.356C-107.002 103.896 -102.613 105.45 -100.749 109.13C-96.9834 115.019 -90.3261 117.296 -83.8087 118.369C-84.2846 113.407 -88.8696 110.156 -92.0355 106.87C-87.5993 106.25 -80.8851 121.332 -80.8213 116.899L-80.8267 116.917ZM-67.9194 124.865C-61.0438 124.019 -54.1201 123.627 -47.1931 123.69C-53.9003 125.679 -61.9169 124.103 -68.6118 126.971C-58.2013 134.258 -45.9422 129.159 -36.7088 122.284C-47.1004 119.501 -58.0948 119.964 -68.2154 123.612C-69.9709 124.056 -70.2142 125.636 -67.914 124.847L-67.9194 124.865ZM-96.9815 136.028C-100.41 132.547 -105.488 131.065 -108.242 126.822C-102.161 130.404 -95.6194 133.787 -91.0954 139.379C-91.4247 128.982 -103.149 119.308 -112.656 119.59C-121.293 122.217 -105.218 132.404 -103.991 136.173C-101.476 142.473 -86.6762 145.185 -96.9761 136.011L-96.9815 136.028ZM-97.5495 165.367C-97.5605 160.929 -111.38 168.968 -113.757 170.19C-109.267 165.655 -103.329 162.84 -96.976 162.234C-106.843 152.89 -119.319 172.288 -123.252 176.128C-124.433 177.664 -122.791 177.28 -115.588 176.758C-107.752 176.28 -102.59 170.69 -97.5441 165.349L-97.5495 165.367ZM-108.578 100.457L-108.431 100.35L-108.578 100.457ZM-47.0392 123.624C-46.3499 124.161 -46.3365 123.138 -47.0392 123.624V123.624ZM-95.1198 105.037C-96.1373 105.311 -95.469 103.71 -95.0282 104.742L-95.1198 105.037ZM-108.482 126.614L-108.361 126.652C-108.347 126.732 -108.419 126.596 -108.477 126.597L-108.482 126.614ZM-115.258 171.284C-115.705 172.725 -116.337 171.082 -115.258 171.284V171.284Z" fill="white"/>
</g>
</svg>
