<svg width="269" height="109" viewBox="0 0 269 109" fill="none" xmlns="http://www.w3.org/2000/svg">
<g id="Group 26928" opacity="0.1">
<path id="Vector" d="M107.797 194.349C113.484 198.23 134.301 181.415 128.412 182.506C117.743 183.59 104.108 176.526 97.765 189.665C96.092 195.585 87.272 175.751 90.8412 173.492C94.0187 170.675 99.8969 171.311 102.361 167.17C105.735 161.422 112.378 157.966 114.902 152.013C115.047 140.891 84.4099 158.884 88.6235 170.481C88.5625 180.825 83.6509 165.313 81.9937 162.721C79.6246 159.263 81.0355 156.098 82.1506 152.943C86.1766 149.043 96.0408 151.844 102.002 144.364C104.696 140.277 111.311 138.895 113.125 134.91C112.582 132.6 102.527 136.005 99.521 134.637C89.0302 132.438 79.8157 138.603 80.303 150.155C80.1806 151.772 80.0724 154.128 78.7973 154.997C74.6128 147.359 71.5422 138.588 67.0398 131.103C64.7272 125.741 67.9709 124.038 72.3888 121.524C76.8067 119.01 82.4578 115.896 83.729 106.641C84.383 106.337 85.9363 81.6407 80.2161 90.886C73.5151 101.947 65.6862 113.403 65.099 126.663C42.2818 106.367 62.981 92.9186 46.3287 73.7819C33.0413 60.3353 41.6941 76.1521 40.1638 82.8111C39.3613 93.9049 48.2262 101.957 52.2168 110.963C43.9854 106.411 43.3374 95.1842 32.8622 94.6615C29.9117 95.0679 12.8225 91.422 18.2354 95.8852C30.0789 110.34 45.3052 102.055 55.9674 118.552C61.7539 125.703 45.9787 111.815 43.0006 113.228C36.2484 112.18 26.2821 115.488 21.1083 120.147C35.3653 129.717 54.658 109.098 65.5144 133.11C67.202 136.811 60.3442 130.045 59.3605 129.984C55.8056 125.754 29.4453 128.283 31.3179 134.109C55.1814 148.02 64.2358 116.231 76.8573 158.135C72.0105 157.015 69.6876 148.047 59.0867 147.505C50.966 145.913 42.4098 141.44 34.2755 142.66C39.7108 151.007 52.0074 163.491 64.1756 159.624C67.3056 159.245 70.9646 156.999 73.9725 159.066C80.4675 163.311 82.2944 171.209 85.7464 177.997C87.4727 180.619 84.5452 179.337 80.2474 177.879C71.4067 173.344 63.1146 178.898 54.6592 181.595C44.5348 186.276 68.1211 196.76 82.3585 182.051C89.9815 176.779 100.863 215.084 117.818 220.659C118.627 219.739 119.343 218.742 119.954 217.68C113.002 213.419 82.8838 183.879 107.797 194.349ZM78.1372 179.152C72.7853 180.71 67.3565 181.992 61.8725 182.99C65.5296 185.14 74.5324 182.234 78.3888 181.085C75.1614 189.081 50.6219 188.766 54.3523 182.742C62.2484 180.805 69.6296 175.551 77.9425 178.037C79.3807 178.131 79.6073 179.159 78.1372 179.152ZM46.6492 89.1328C44.9095 87.1892 48.145 98.6891 48.0852 100.022C39.571 92.08 43.6897 80.9492 40.2367 70.85C40.0649 70.1797 40.6343 70.0657 41.1297 70.5472C57.0325 77.9262 53.6466 127.46 46.6492 89.1328ZM30.3695 102.9C29.514 103.08 26.069 100.393 23.1453 98.3761C12.4903 91.9037 27.261 95.5576 31.9035 95.5058C36.2314 96.1777 40.4911 98.2366 42.5532 102.842C42.8568 105.151 31.6681 97.9704 29.461 98.3267C32.5082 100.97 38.6499 101.923 41.5053 105.327C39.2893 106.216 32.347 103.667 30.3695 102.9ZM69.8694 120.93C69.3499 119.893 73.633 114.931 74.2155 113.311C75.8684 109.889 80.0957 105.286 79.064 100.914C76.6336 107.318 72.9739 113.185 68.2911 118.184C71.7297 109.302 75.4687 98.9583 81.8066 91.7766C83.6633 103.154 81.1812 116.893 69.8694 120.93ZM31.2204 117.322C34.5817 117.586 36.1983 116.531 41.9409 117.331C57.3914 118.975 24.6371 123.123 22.3161 119.949C28.6342 116.093 38.3755 112.694 45.6636 115.977C49.2759 117.587 45.835 116.887 41.4115 116.476C36.9879 116.065 31.7636 116.192 31.2204 117.322ZM59.5589 131.431C60.0066 131.39 43.3549 129.192 45.5527 131.501C49.3927 131.287 53.7767 131.361 57.2075 133.31C53.5206 135.131 49.4895 136.149 45.3801 136.297C41.2708 136.445 37.1767 135.72 33.3682 134.17C28.6559 131.71 37.9986 130.88 40.0322 129.981C46.2592 128.134 54.2596 126.71 59.5645 131.395L59.5589 131.431ZM81.5385 147.882C85.0253 129.922 98.8669 138.14 111.176 135.379C103.327 141.517 95.0421 149.629 84.1807 149.58C85.483 144.982 90.6095 142.522 94.2496 139.924C90.1518 138.718 80.8298 151.855 81.544 147.846L81.5385 147.882ZM67.7217 153.958C61.0011 151.995 53.8328 150.073 47.2252 148.33C53.4141 152.178 61.9003 152.245 68.0752 156.183C56.4063 162.758 43.9429 153.007 37.0825 144.126C47.9872 144.309 58.6706 147.232 68.1491 152.627C69.7743 153.412 69.8438 155.097 67.6555 153.911L67.7217 153.958ZM95.8371 165.476C99.202 162.045 104.129 160.161 107.012 156.397C100.936 159.997 94.443 163.439 90.1411 169.116C86.3147 158.224 123.287 140.882 111.187 155.924C108.559 158.992 104.355 160.84 102.493 164.542C100.394 170.359 86.1125 174.928 95.7709 165.429L95.8371 165.476ZM101.866 191.203C100.712 187.622 114.882 187.798 117.309 186.502C111.483 186.189 105.649 186.948 100.097 188.74C104.415 179.167 120.871 185.234 126.507 183.644C127.772 183.547 126.631 184.62 121.193 189.201C115.501 194.239 108.65 193.709 101.8 191.156L101.866 191.203ZM64.9374 126.638L65.099 126.663L64.9374 126.638ZM111.386 135.449L111.26 135.429L111.386 135.449ZM47.0872 148.272C46.4788 147.571 46.3143 148.63 47.0872 148.272V148.272ZM97.6491 138.521C98.5551 138.846 98.2613 137.421 97.6881 138.27L97.6491 138.521ZM107.282 156.2L107.156 156.181C107.08 156.316 107.15 156.217 107.21 156.189L107.282 156.2ZM118.947 186.259C119.694 185.474 119.798 186.814 118.947 186.259V186.259Z" fill="white"/>
<path id="Vector_2" d="M180.603 178.965C191.606 180.471 197.367 172.74 203.504 166.852C205.321 164.982 198.498 166.405 197.686 165.948C186.948 164.631 171.083 159.612 167.971 174.448C167.634 176.621 167.186 176.662 165.42 174.769C160.318 169.251 147.918 157.193 160.65 153.247C161.733 152.853 162.71 152.214 163.506 151.381C164.302 150.547 164.895 149.542 165.24 148.443C166.914 141.567 172.758 136.736 173.728 129.898C171.256 117.983 143.614 140.378 151.822 153.606C156.378 167.499 139.627 142.131 139.918 139.307C138.787 132.732 142.723 130.952 149.206 129.825C157.23 128.606 160.873 118.762 167.648 114.683C168.386 114.08 169.8 113.619 169.272 112.397C168.57 110.284 158.779 114.244 155.695 112.901C144.107 110.072 134.938 119.022 137.813 130.355C137.948 132.215 138.389 135.061 137.247 136.134C106.243 78.7786 129.011 112.658 146.319 79.9424C147.575 77.3051 154.983 66.4275 147.408 70.3274C135.176 75.785 122.819 84.9012 121.176 99.7451C102.495 66.0772 129.338 61.8581 137.166 33.9421C138.947 28.8669 135.816 30.7901 131.728 33.4291C113.654 41.3451 113.23 57.2242 113.181 74.2464C107.729 61.9794 114.928 50.3153 110.634 37.6948C107.459 29.7168 109.469 19.7299 108.491 11.9277C101.047 22.7997 98.1948 39.7546 102.258 52.9095C108.089 64.279 110.653 72.6402 113.784 85.9998C114.969 90.2114 115.27 92.2995 111.697 85.1058C106.293 69.9221 98.7526 63.5285 87.5496 55.6101C85.5969 53.8541 83.7113 52.4947 82.3015 53.8759C80.9356 67.7696 92.2703 78.3935 102.532 82.5428C112.597 87.0109 117.068 97.305 120.976 108.027C121.773 110.596 120.48 109.329 118.844 107.309C117.208 105.29 115.342 102.499 114.849 102.239C112.583 99.8325 110.044 97.698 107.285 95.8783C104.623 94.3065 82.4149 84.4222 85.5567 93.6824C95.5901 120.509 114.53 98.4926 124.883 117.81C128.068 125.367 132.453 132.778 135.91 140.009C131.57 138.821 127.052 131.554 122.327 128.705C111.063 124.143 100.629 117.668 90.1273 111.036C80.7143 106.632 109.427 151.622 122.985 141.883C136.823 134.836 143.79 154.051 151.249 162.51C153.88 165.346 150.432 164.222 145.356 162.919C134.983 158.661 128.098 165.335 119.522 169.52C110.358 175.123 137.074 186.774 148.935 167.466C151.324 165.703 154.466 166.669 156.951 169.85C168.444 183.368 180.826 197.906 197.194 206.792C198.013 205.88 198.729 204.881 199.33 203.813C192.535 199.245 149.729 169.226 180.603 178.965ZM143.548 164.735C138.381 167.084 133.068 169.098 127.642 170.763C132.088 172.924 140.657 168.663 144.459 166.918C142.904 176.939 117.636 178.35 119.593 171.076C127.557 167.991 133.71 161.406 142.987 163.489C144.45 163.422 145.112 164.61 143.548 164.735ZM122.65 48.314C122.773 45.1515 116.221 57.7436 115.774 59.2007C115.657 51.4216 118.768 43.1137 124.569 40.3361C127.286 39.8935 135.221 30.9551 136.079 33.4792C132.776 46.7043 123.428 55.1475 116.203 66.035C112.877 67.082 122.181 47.5424 122.65 48.314ZM101.92 42.6501C100.016 44.4879 105.996 11.0621 107.733 17.0513C105.702 30.8418 113.097 43.153 109.706 57.0633C107.296 59.08 106.166 38.8769 105.634 36.4956C104.316 43.9231 107.253 51.7722 107.299 58.823C104.824 57.9423 102.061 46.7179 101.92 42.6501ZM126.836 94.6834C126.527 93.2377 131.845 89.1897 132.866 87.8218C135.352 84.8421 140.771 82.0419 141.761 77.9107C136.763 82.2658 131.012 87.9202 125.911 91.0455C130.572 82.7024 139.352 74.3551 148.287 71.7696C143.829 80.8247 137.937 93.4273 126.836 94.6834ZM91.7773 63.917C94.325 68.1193 96.1951 68.6303 101.105 74.9098C109.655 84.4025 100.567 78.3757 96.1141 76.3787C89.3156 72.7854 84.7247 63.2635 83.3588 55.7136C84.1648 54.3123 85.4828 56.4847 86.3624 56.8603C93.24 63.2613 100.835 66.7023 105.065 76.0578C107.709 80.8268 104.814 77.6741 101.033 73.2434C97.2518 68.8128 92.8744 62.8919 91.7773 63.917ZM114.935 104.293C115.132 104.802 98.542 94.5027 100.536 98.6007C104.445 100.311 109.05 102.276 112.396 105.959C102.578 108.904 93.7478 104.536 87.6008 95.3238C83.2665 87.1107 92.959 93.2682 95.1799 92.8222C102.5 94.124 110.812 97.3269 114.976 104.263L114.935 104.293ZM138.696 127.752C137.956 109.89 155.736 116.071 167.341 113.109C159.846 119.688 152.871 129.438 141.687 129.688C142.29 124.264 147.219 121.535 150.668 118.631C145.67 117.653 138.58 132.405 138.696 127.752ZM125.306 134.869C117.417 132.065 109.779 128.603 102.471 124.52C109.279 131.369 118.551 132.533 126.174 137.689C111.028 146.758 97.6439 128.129 91.1408 114.577C91.1195 112.937 136.813 138.218 125.303 134.887L125.306 134.869ZM157.718 147.257C160.222 142.974 164.734 140.327 166.655 135.77C161.437 140.478 155.627 145.093 152.877 152.022C145.362 140.134 179.304 116.842 170.854 134.785C169.041 138.532 165.2 141.117 164.458 145.544C163.956 152.804 150.49 158.99 157.742 147.224L157.718 147.257ZM172.863 175.87C169.742 172.277 186.671 170.914 188.961 169.909C182.509 169.489 176.053 170.652 170.154 173.297C172.673 160.98 193.995 168.52 199.428 167.046C201.155 167.057 199.939 168.137 194.802 173.151C188.785 178.856 180.567 177.893 172.868 175.834L172.863 175.87ZM167.456 113.2L167.33 113.181L167.456 113.2ZM102.279 124.453C101.563 123.257 101.488 124.808 102.296 124.345L102.279 124.453ZM153.902 117.11C154.828 117.42 154.435 115.924 153.851 116.845L153.902 117.11ZM166.874 135.547L166.748 135.527C166.774 135.715 166.904 135.588 166.91 135.553L166.874 135.547ZM190.763 169.674C191.395 168.797 192.04 170.332 190.763 169.674V169.674Z" fill="white"/>
<path id="Vector_3" d="M212.699 200.149C215.412 209.325 223.968 213.448 231.312 218.266C233.547 219.625 230.716 212.51 230.75 211.577C228.805 204.323 229.313 193.588 221.821 189.961C217.322 185.768 206.717 191.294 208.773 187.053C214.858 162.544 214.126 174.606 228.864 172.314C234.984 168.427 242.296 168.716 247.486 162.644C251.352 156.108 242.362 154.308 236.658 154.563C213.395 153.729 211.234 188.023 213.331 156.864C212.481 148.474 219.071 144.881 226.766 147.915C234.461 150.948 242.355 142.978 249.832 141.491C258.618 137.852 241.675 136.344 239.108 133.923C229.229 127.663 219.076 132.652 216.225 143.906C215.702 145.498 214.667 147.784 213.195 148.144C211.918 139.191 211.113 129.687 208.216 120.98C206.218 108.146 227.571 116.904 230.939 94.7327C231.866 91.8421 235.111 76.8608 229.18 83.5539C219.934 92.7668 210.134 102.942 207.199 116.041C187.831 89.6408 213.387 79.0241 199.95 54.0969C195.973 45.7186 195.406 64.0582 193.077 65.2046C188.273 76.0084 195.434 86.867 197.441 97.0361C190.448 90.4333 191.645 77.9846 182.093 73.7617C176.238 71.4367 171.349 65.7306 166.063 63.7697C167.131 70.8689 172.142 77.9181 177.226 83.4337C187.555 91.7682 193.827 91.528 199.734 105.723C203.728 115.538 191.298 91.117 175.43 94.8882C172.827 95.6612 166.088 93.9346 164.241 96.5905C174.312 112.866 201.206 96.0022 206.32 122.653C207.267 126.736 201.793 118.401 200.897 118.134C198.613 113.181 171.254 109.707 172.483 116.242C191.652 134.924 211.412 105.844 210.259 150.355C205.714 145.75 205.476 137.327 196.712 135.139C189.162 131.65 181.938 125.82 173.747 125.395C177.788 134.905 185.537 146.83 197.91 147.445C200.956 148.083 205.308 147.177 207.215 150.176C211.744 156.544 210.046 164.758 208.984 171.95C208.92 176.63 202.163 164.712 199.157 164.172C160.182 152.475 179.679 174.61 203.883 173.181C216.05 178.325 193.424 208.688 191.174 217.02C192.184 217.718 193.252 218.326 194.368 218.839C197.681 212.899 201.386 205.97 204.166 199.671C208.277 188.116 209.096 187.342 212.699 200.149ZM202.184 168.963C196.984 167.512 191.248 165.96 186.317 164.551C188.901 167.453 197.863 169.433 201.401 170.57C197.454 174.077 173.795 164.299 179.808 161.701C187.532 163.36 196.742 162.197 202.724 168.091C203.654 168.732 203.307 169.781 202.184 168.963ZM197.252 73.6136C196.03 71.1802 196.152 83.5395 195.82 84.8489C189.456 74.6656 196.423 64.9701 198.003 54.4383C198.106 53.7739 198.714 53.8866 198.919 54.5805C207.583 61.4426 197.119 105.63 197.109 83.3018C196.932 80.073 196.98 76.8358 197.252 73.6136ZM177.403 81.3463C177.357 82.5897 164.944 64.4604 168.733 66.1153C174.071 71.0634 181.864 73.3399 186.513 79.1742C187.471 79.8746 191.819 88.2369 188.586 86.0799C185.353 83.9228 180.788 78.1384 177.691 76.0576C180.353 80.5903 185.928 83.773 188.153 88.2748C185.804 88.4802 179.146 83.2719 177.403 81.3463ZM213.203 111.363C212.853 110.187 217.943 106.067 218.837 104.569C221.166 101.418 226.29 97.6707 226.12 93.1939C222.437 99.0285 217.704 104.13 212.162 108.241C217.111 100.053 222.896 90.5049 230.701 84.8934C229.957 95.6101 225.024 109.851 213.167 111.358L213.203 111.363ZM175.339 97.7247C178.606 99.1881 180.726 98.561 186.147 101.076C189.479 102.476 192.101 103.95 189.407 103.771C181.153 103.869 171.492 102.957 165.642 97.0469C172.896 95.4512 183.679 95.4147 190.039 100.65C195.319 105.019 177.039 95.3035 175.303 97.7191L175.339 97.7247ZM200.885 119.75C201.226 119.803 185.356 113.992 187.144 116.808C191.158 117.155 194.995 118.617 198.222 121.029C194.214 122.05 190.034 122.2 185.963 121.47C181.892 120.74 178.025 119.146 174.622 116.795C170.463 113.023 179.816 114.493 181.974 113.982C188.417 113.585 196.693 113.821 200.885 119.75ZM218.203 142.061C226.816 124.493 237.559 137.029 250.262 139.314C247.437 141.873 242.812 141.339 239.52 143.826C233.549 147.46 226.569 146.578 220.243 144.677C222.852 140.429 228.399 139.525 232.688 137.965C228.976 135.458 216.315 146.053 218.206 142.043L218.203 142.061ZM203.116 143.526C197.312 139.744 191.266 136.348 185.016 133.36C190.166 138.095 198.06 140.203 202.812 145.723C190.258 147.691 181.488 137.723 176.217 127.489C186.775 129.557 196.446 134.806 203.933 142.531C205.314 143.702 204.838 145.228 203.119 143.508L203.116 143.526ZM224.312 166.329C228.922 164.709 234.134 165.61 238.473 163.01C231.437 163.555 224.074 163.718 217.552 166.751C222.419 157.557 237.202 154.022 245.617 158.455C252.22 164.611 233.304 166.695 230.545 169.54C225.516 174.093 211.031 170.024 224.315 166.311L224.312 166.329ZM211.925 192.931C213.886 188.95 222.764 202.245 224.363 204.388C222.323 198.341 218.227 193.201 212.787 189.864C225.757 185.809 228.436 208.717 230.28 213.895C230.666 215.794 229.36 214.727 223.12 211.091C216.291 207.217 214.113 199.928 211.928 192.913L211.925 192.931ZM250.365 139.477L250.28 139.317L250.365 139.477ZM184.907 133.233C184.052 133.413 184.49 132.488 184.907 133.233V133.233ZM236.264 137.674C237.057 138.368 237.161 136.636 236.311 137.369L236.264 137.674ZM238.78 162.929L238.654 162.91C238.607 162.976 238.732 162.885 238.783 162.911L238.78 162.929ZM225.23 206.03C224.998 207.521 226.288 206.323 225.23 206.03V206.03Z" fill="white"/>
</g>
</svg>
