<svg width="344" height="784" viewBox="0 0 344 784" fill="none" xmlns="http://www.w3.org/2000/svg">
<path fill-rule="evenodd" clip-rule="evenodd" d="M0 21.1709L0 119L0 665L0 762.829L0 763.829H1H20.1695V783V784H21.1695H120H224H307H322.831H323.831V783V773.914H324V771.914H323.831V763.829H343H344V762.829V665V119V21.171V20.171H343H323.831V1.00011V0.000114441H322.831H322V0L120 0L21.1695 0L20.1695 0V1V20.1709H1H0L0 21.1709ZM321.831 771.914V763.829H312.746V771.914H321.831ZM312.746 761.829H321.831V754.752H312.746V761.829ZM321.831 752.752H311.746H310.746V753.752V761.829H303.661V744.667H321.831V752.752ZM323.831 752.752V743.667V742.667H322.831H302.661H301.661V743.667V762.829V763.829H302.661H310.746V771.914H223H120L32.2543 771.914V763.829H41.339H42.339V762.829V743.667V742.667H41.339H21.1695H20.1695V743.667V752.752H14.1017L14.1017 665L14.1017 119L14.1017 119L14.1017 31.2478H20.1695V40.3333V41.3333H21.1695H41.339H42.339V40.3333V21.1709V20.1709H41.339H32.2543V12.0856L223 12.0856L310.746 12.0856V20.171H302.661H301.661V21.171V40.3334V41.3334H302.661H322.831H323.831V40.3334V31.2479H328.898L328.898 119V665V752.752H323.831ZM323.831 754.752V761.829H342V665V119V22.171H323.831V29.2479H329.898H330.898V30.2479L330.898 119V665V753.752V754.752H329.898H323.831ZM321.831 29.2479V22.171H312.746V29.2479H321.831ZM310.746 22.171H303.661V39.3334H321.831V31.2479H311.746H310.746V30.2479V22.171ZM312.746 20.171H321.831V2.00011H224V2H120H22.1695V10.0856H30.2543V10.0854H31.2543L120 10.0854V10.0856L223 10.0856L311.746 10.0856H312.746V11.0856V20.171ZM22.1695 12.0856V20.1709H30.2543V12.0856H22.1695ZM30.2543 22.1709H22.1695V29.2478H30.2543V22.1709ZM22.1695 31.2478V39.3333H40.339V22.1709H32.2543V30.2478V31.2478H31.2543H22.1695ZM20.1695 29.2478V22.1709H2V119V665V761.829H20.1695V754.752H13.1017H12.1017V753.752L12.1017 665L12.1017 119L12.1017 119L12.1017 30.2478V29.2478H13.1017H20.1695ZM22.1695 754.752V761.829H30.2543V754.752H22.1695ZM32.2543 761.829H40.339V744.667H22.1695V752.752H31.2543H32.2543V753.752V761.829ZM30.2543 763.829H22.1695V782H120H224H307H321.831V773.914H312.746H311.746H223H120L31.2543 773.914H30.2543V772.914V763.829Z" fill="white"/>
<path fill-rule="evenodd" clip-rule="evenodd" d="M0 21.1709L0 119L0 665L0 762.829L0 763.829H1H20.1695V783V784H21.1695H120H224H307H322.831H323.831V783V773.914H324V771.914H323.831V763.829H343H344V762.829V665V119V21.171V20.171H343H323.831V1.00011V0.000114441H322.831H322V0L120 0L21.1695 0L20.1695 0V1V20.1709H1H0L0 21.1709ZM321.831 771.914V763.829H312.746V771.914H321.831ZM312.746 761.829H321.831V754.752H312.746V761.829ZM321.831 752.752H311.746H310.746V753.752V761.829H303.661V744.667H321.831V752.752ZM323.831 752.752V743.667V742.667H322.831H302.661H301.661V743.667V762.829V763.829H302.661H310.746V771.914H223H120L32.2543 771.914V763.829H41.339H42.339V762.829V743.667V742.667H41.339H21.1695H20.1695V743.667V752.752H14.1017L14.1017 665L14.1017 119L14.1017 119L14.1017 31.2478H20.1695V40.3333V41.3333H21.1695H41.339H42.339V40.3333V21.1709V20.1709H41.339H32.2543V12.0856L223 12.0856L310.746 12.0856V20.171H302.661H301.661V21.171V40.3334V41.3334H302.661H322.831H323.831V40.3334V31.2479H328.898L328.898 119V665V752.752H323.831ZM323.831 754.752V761.829H342V665V119V22.171H323.831V29.2479H329.898H330.898V30.2479L330.898 119V665V753.752V754.752H329.898H323.831ZM321.831 29.2479V22.171H312.746V29.2479H321.831ZM310.746 22.171H303.661V39.3334H321.831V31.2479H311.746H310.746V30.2479V22.171ZM312.746 20.171H321.831V2.00011H224V2H120H22.1695V10.0856H30.2543V10.0854H31.2543L120 10.0854V10.0856L223 10.0856L311.746 10.0856H312.746V11.0856V20.171ZM22.1695 12.0856V20.1709H30.2543V12.0856H22.1695ZM30.2543 22.1709H22.1695V29.2478H30.2543V22.1709ZM22.1695 31.2478V39.3333H40.339V22.1709H32.2543V30.2478V31.2478H31.2543H22.1695ZM20.1695 29.2478V22.1709H2V119V665V761.829H20.1695V754.752H13.1017H12.1017V753.752L12.1017 665L12.1017 119L12.1017 119L12.1017 30.2478V29.2478H13.1017H20.1695ZM22.1695 754.752V761.829H30.2543V754.752H22.1695ZM32.2543 761.829H40.339V744.667H22.1695V752.752H31.2543H32.2543V753.752V761.829ZM30.2543 763.829H22.1695V782H120H224H307H321.831V773.914H312.746H311.746H223H120L31.2543 773.914H30.2543V772.914V763.829Z" fill="url(#paint0_linear_402_2733)"/>
<defs>
<linearGradient id="paint0_linear_402_2733" x1="72.8635" y1="4.44981e-05" x2="510.482" y2="40.4147" gradientUnits="userSpaceOnUse">
<stop stop-color="#FFE68E"/>
<stop offset="0.275196" stop-color="#825E03"/>
<stop offset="0.683816" stop-color="#FFE68E"/>
<stop offset="1" stop-color="#825E03"/>
</linearGradient>
</defs>
</svg>
